# Blender v2.76 (sub 0) OBJ File: ''
# www.blender.org
mtllib p.mtl
o Pyramid
v 1.500000 -0.842063 1.500000
v 0.000000 2.157937 0.000000
v -1.500000 -0.842063 1.500000
v -1.500000 -0.842063 -1.500000
v 1.500000 -0.842063 -1.500000
vn -0.000000 0.447200 0.894400
vn 0.000000 0.447200 -0.894400
vn -0.894400 0.447200 0.000000
vn 0.894400 0.447200 0.000000
vn 0.000000 -1.000000 0.000000
usemtl None
s off
f 1//1 2//1 3//1
f 4//2 2//2 5//2
f 3//3 2//3 4//3
f 5//4 2//4 1//4
f 4//5 5//5 1//5
f 1//5 3//5 4//5
